# xmcd
#
# Track frame offsets: 
#        180
#        9452
#        26617
#        43765
#        66582
#        83697
#        99887
#        120272
#        140377
#        145122
#        168192
#        204907
#        216710
#        234152
#        250687
#        286560
#        308047
#        330227
#
# Disc length: 4599 seconds
#
# Revision: 0
# Processed by: cddbd v1.4PL0 Copyright (c) Steve Scherf et al.
# Submitted via: ExactAudioCopy v0.95a3
#
DISCID=e511f512
DTITLE=Patricia Kaas - Carnets de scene
DYEAR=1900
DGENRE=Blues
TTITLE0=Generique (theme Montmajour)
TTITLE1=Les mannequins d'osier
TTITLE2=Venus des aribus
TTITLE3=Mon mec a moi
TTITLE4=Tropic blues bar
TTITLE5=Coeurs brises
TTITLE6=Elle voulait jouer cabaret
TTITLE7=L'heure du jazz
TTITLE8=Lili Marlene
TTITLE9=D'Allemagne
TTITLE10=Regarde les riches
TTITLE11=Summertime
TTITLE12=Patou blues
TTITLE13=Kennedy rose
TTITLE14=Mademoiselle chante le blues
TTITLE15=Bessie
TTITLE16=Les hommes qui passent
TTITLE17=Une derniere semaine a New York
EXTD=
EXTT0=
EXTT1=
EXTT2=
EXTT3=
EXTT4=
EXTT5=
EXTT6=
EXTT7=
EXTT8=
EXTT9=
EXTT10=
EXTT11=
EXTT12=
EXTT13=
EXTT14=
EXTT15=
EXTT16=
EXTT17=
PLAYORDER=
